<?xml version="1.0" encoding="UTF-8"?><svg id="a" xmlns="http://www.w3.org/2000/svg" viewBox="0 0 318 318.61"><defs><style>.c{fill:#6d28d9;}.d{fill:none;stroke:#481e6e;stroke-linecap:round;stroke-linejoin:round;stroke-width:4.03px;}.e{fill:#eab308;}.f{fill:#8b5cf6;}</style></defs><circle class="e" cx="159" cy="159" r="159"/><g id="b"><path class="f" d="M262.15,9.87c.16-.05.34-.04.49-.1.85,52.06-17.84,102.62-46.44,145.29-4.62,6.89-11.02,15.95-16.3,22.23-14.18,16.84-37.21,26.36-55.33,38.53l.74,7.66,9.14-2.72c-.4,3.71,1.09,7.75-1.24,10.62-3.84,4.75-25.46,19.72-31.62,23.71-2.29,1.49-31.96,19.17-32.85,17.54,28.92-54.19,64.13-104.7,98.31-155.61,1.24-3.15,1.56-6.25.49-9.63-43.63,44.25-80.14,93.72-108.78,148.69l-7.31-.25c2.13-16.78,4.49-33.69,9.39-49.89.74-2.44,6.69-19.91,7.41-20.75,1.36-1.57,4.53-.21,6.28-.99-1.16-4.69-2.02-9.53-3.35-14.16,1.98-1.07,4.07.42,5.96-1.16.6-.5,6.08-10.48,7.41-12.35,3.92-5.52,30.33-40.35,33.84-41.74.58-.23,5.64.44,6.18-.25-1.12-2.54-2.93-5.92-2.08-8.75.27.15.38.41.87.56.41.13,5.53.16,5.9.03,1.31-.44,16.38-17.1,19.27-19.76,20.47-18.89,53.53-40.85,70.64-59.77,2.57-2.84,3.72-4,2.22-8.5,6.76-3.08,13.73-6.08,20.75-8.5Z"/><path class="c" d="M78.78,256.08c28.64-54.98,65.15-104.44,108.78-148.69,1.07,3.38.74,6.48-.49,9.63-34.18,50.91-69.39,101.43-98.31,155.61.89,1.64,30.56-16.05,32.85-17.54,6.16-3.99,27.77-18.97,31.62-23.71,2.33-2.87.83-6.91,1.24-10.62l-9.14,2.72-.74-7.66c18.12-12.18,41.15-21.69,55.33-38.53,5.29-6.28,11.69-15.34,16.3-22.23,28.6-42.66,47.29-93.23,46.44-145.29-.16.05-.34.04-.49.1.16-.05.34-.04.49-.1,4.43-1.51,8.77-3.08,13.34-4.13l.99.75c2.09,56.48-17.92,112.13-49.99,158.31-6.55,9.42-14.7,21.8-23.61,28.75-14.02,10.93-34.14,16.71-49.63,25.3l24.04,7.91c-25.37,25.38-55.82,45.81-89.01,59.46-7.99,3.29-15.88,5.16-23.63,8.06.62-2.4-1.51-2.25-1.6-2.4v-.37s0,.37,0,.37c-.11-.19-.02-.49-.12-.74.1.24,0,.55.12.74v-.37c-.01-.38-.02-.77-.02-1.15l-.26-.23.27-.3c.22-7.22,11.4-26.22,15.26-33.64Z"/><path class="d" d="M222.68,73.9c-11.82,11-23.73,21.94-35.12,33.49-43.63,44.25-80.14,93.72-108.78,148.69-3.86,7.42-15.04,26.42-15.26,33.64,0,.18,0,.36,0,.54,0,.38,0,.77.01,1.15v.37c-.11-.19-.02-.49-.12-.74-.12-.3-.04-.7-.16-1.02-22.1-58.65,12.29-128.23,49.71-173.25,3.1-3.73,15.25-18.75,18.25-20.68.54-.35.87-.57,1.46-.12,3,2.06,7.02,8.28,9.82,9.82.27.15.38.41.87.56,1.33-5.42-1.47-18.93,1.31-23.19,2.99-4.58,20.77-17.96,26.08-22.03,21.72-16.64,45.78-31.44,70.64-42.78,6.76-3.08,13.73-6.08,20.75-8.5.16-.05.34-.04.49-.1,4.43-1.51,8.77-3.08,13.34-4.13l.99.75c2.09,56.48-17.92,112.13-49.99,158.31-6.55,9.42-14.7,21.8-23.61,28.75-14.02,10.93-34.14,16.71-49.63,25.3l24.04,7.91c-25.37,25.38-55.82,45.81-89.01,59.46-7.99,3.29-15.88,5.16-23.63,8.06-1.54.58-3.3.67-4.71,1.61-3.28,7.23-5.88,13.25-8.8,20.81"/><path class="d" d="M84.84,163.02c6.32-.49,5.01,2.35,6.36,7.03,1.33,4.63,2.19,9.47,3.35,14.16,2.04,8.26,3.85,16.59,5.87,24.85"/></g></svg>